<svg version="1.1" xmlns="http://www.w3.org/2000/svg" xmlns:xlink="http://www.w3.org/1999/xlink" width="100.83332" height="93.83334" viewBox="0,0,100.83332,93.83334"><g transform="translate(-1064.33334,-362.33333)"><g stroke-miterlimit="10"><path d="M1140.35923,372.16203l2.67033,30.87218l-9.39606,0.84512c0,0 4.78396,-26.88941 5.30791,-29.66197c0.11969,-0.63341 -0.86126,6.13174 -0.86126,6.13174" fill="#000000" stroke="#000000" stroke-width="4" stroke-linecap="round"/><path d="M1089.33334,417.25c0,-20.38851 16.52815,-36.91667 36.91666,-36.91667c20.38851,0 36.91666,16.52816 36.91666,36.91667c0,20.38851 -16.52815,36.91667 -36.91666,36.91667c-20.38851,0 -36.91666,-16.52816 -36.91666,-36.91667z" fill="#fffe03" stroke="#000000" stroke-width="4" stroke-linecap="butt"/><path d="M1147.20354,430.52766c-0.11248,-5.39036 4.37071,-9.76225 9.76225,-9.76225c1.2294,0 3.86716,0.64204 3.86716,0.64204c0,0 -1.14156,6.71726 -2.42367,9.87422c-1.15321,2.83954 -5.30124,8.21637 -5.30124,8.21637c0,0 -5.77852,-2.93347 -5.90449,-8.97039z" fill="#ff778e" stroke="none" stroke-width="0" stroke-linecap="butt"/><path d="M1147.19906,423.5951c-3.65299,-1.00965 -5.21844,-3.05 -5.21844,-3.05c0,0 2.15672,-3.18394 4.8204,-4.41227c2.85877,-1.31829 5.07688,-1.38471 5.07688,-1.38471l-6.5961,5.30413l6.5961,3.90731c0,0 -2.29625,0.29408 -4.67884,-0.36445z" fill="#000000" stroke="none" stroke-width="0" stroke-linecap="butt"/><path d="M1133.33334,370.91667c0,-3.63587 2.94745,-6.58334 6.58333,-6.58334c3.63587,0 6.58334,2.94746 6.58334,6.58334c0,3.63587 -2.94746,6.58333 -6.58334,6.58333c-3.63587,0 -6.58333,-2.94745 -6.58333,-6.58333z" fill="#fffe03" stroke="#000000" stroke-width="4" stroke-linecap="butt"/><path d="M1073.41668,380.41667l16.33334,26.33333l-8,5c0,0 -7.88379,-26.14905 -8.66932,-28.85913c-0.17946,-0.61913 2.00265,5.85913 2.00265,5.85913" fill="#000000" stroke="#000000" stroke-width="4" stroke-linecap="round"/><path d="M1097.0183,430.54825c0,-5.39154 4.3707,-9.76225 9.76224,-9.76225c5.39154,0 9.76225,4.3707 9.76225,9.76225c0,5.39154 -4.37071,9.76225 -9.76225,9.76225c-5.39154,0 -9.76224,-4.3707 -9.76224,-9.76225z" fill="#ff778e" stroke="none" stroke-width="0" stroke-linecap="butt"/><path d="M1066.33334,381.58334c0,-3.63587 2.94745,-6.58333 6.58333,-6.58333c3.63587,0 6.58334,2.94746 6.58334,6.58333c0,3.63587 -2.94746,6.58333 -6.58334,6.58333c-3.63587,0 -6.58333,-2.94746 -6.58333,-6.58333z" fill="#fffe03" stroke="#000000" stroke-width="4" stroke-linecap="butt"/><path d="M1074.41668,419.41667c0,-8.65246 7.01421,-15.66667 15.66667,-15.66667c8.65246,0 15.66666,7.01421 15.66666,15.66667c0,8.65246 -7.0142,15.66667 -15.66666,15.66667c-8.65246,0 -15.66667,-7.01421 -15.66667,-15.66667z" fill="#000000" stroke="none" stroke-width="0" stroke-linecap="butt"/><path d="M1097.79104,421.27117c0,5.61489 -4.41172,10.16667 -9.85385,10.16667c-5.44213,0 -9.85384,-4.55177 -9.85384,-10.16667c0,-5.61489 4.41171,-10.16667 9.85384,-10.16667c5.44213,0 9.85385,4.55178 9.85385,10.16667z" fill="#fd0002" stroke="none" stroke-width="0" stroke-linecap="butt"/><path d="M1147.12661,423.72223c0,1.13525 -1.44264,2.05555 -3.22222,2.05555c-1.77958,0 -3.22222,-0.9203 -3.22222,-2.05555c0,-1.13525 1.44263,-2.05556 3.22222,-2.05556c1.77958,0 3.22222,0.92031 3.22222,2.05556z" fill="#fffe03" stroke="#000000" stroke-width="0" stroke-linecap="butt"/><path d="M1157.52564,405.95323l0.16236,2.95502c0,0 -6.09793,-1.68281 -10.50486,-0.60377c-2.81435,0.6891 -6.30424,4.986 -6.30424,4.986l-2.28219,-1.85161c0,0 4.35817,-5.99149 8.02145,-6.7509c5.65555,-1.17242 10.90749,1.26525 10.90749,1.26525z" fill="#000000" stroke="none" stroke-width="0" stroke-linecap="butt"/><path d="M1149.50034,425.05557c0,1.25421 -0.15861,3.05129 -2.34279,4.70977c-1.88254,1.42944 -5.22286,0.73467 -5.22286,0.73467c0,0 2.51308,-1.00592 3.98774,-2.48188c1.28732,-1.28845 1.67755,-2.93508 0.28831,-4.58342c-0.90271,-1.07108 -2.4231,-1.41821 -3.91358,-0.9226c-2.19342,0.72935 -4.32207,2.76568 -4.32207,2.76568c0,0 2.05825,-5.55555 6.29293,-5.44444c3.01142,0.07902 5.23232,2.4608 5.23232,5.22222z" fill="#000000" stroke="none" stroke-width="0" stroke-linecap="butt"/><path d="M1111.68264,424.70204l6.5961,-3.90731l-6.5961,-5.30413c0,0 2.2181,0.06642 5.07688,1.38471c2.66368,1.22833 4.8204,4.41227 4.8204,4.41227c0,0 -1.56545,2.04035 -5.21845,3.05c-2.38259,0.65852 -4.67883,0.36445 -4.67883,0.36445z" fill="#000000" stroke="none" stroke-width="0" stroke-linecap="butt"/><path d="M1115.31383,403.40705c4.12117,0.83408 9.07025,7.72722 9.07025,7.72722l-2.54636,2.17647c0,0 -3.95853,-4.9389 -7.12562,-5.70224c-4.95927,-1.1953 -11.79268,0.83398 -11.79268,0.83398l0.15554,-3.42915c0,0 5.87641,-2.89397 12.23888,-1.60627z" fill="#000000" stroke="none" stroke-width="0" stroke-linecap="butt"/><path d="M1132.16584,442.55044c-0.9401,2.0709 -1.88162,3.90086 -4.22838,3.09254c-1.85805,-0.63999 -1.10498,-2.32032 -0.16487,-4.39122c0.9401,-2.0709 3.02491,-3.71709 4.23807,-3.35846c1.21316,0.35862 1.09529,2.58625 0.15519,4.65715z" fill="#000000" stroke="none" stroke-width="0" stroke-linecap="butt"/></g></g></svg>